<?xml version="1.0" encoding="UTF-8"?>
<svg version="1.1" xmlns="http://www.w3.org/2000/svg" width="1366" height="768">
<path d="M0 0 C11.36844311 10.86846777 11.36844311 10.86846777 14.5 17.5 C13.23256028 21.30231917 12.00687732 21.66460223 8.58984375 23.63671875 C7.60048828 24.21357422 6.61113281 24.79042969 5.59179688 25.38476562 C4.55087891 25.97966797 3.50996094 26.57457031 2.4375 27.1875 C1.39271484 27.79400391 0.34792969 28.40050781 -0.72851562 29.02539062 C-3.31447836 30.52501285 -5.90499351 32.01610023 -8.5 33.5 C-11.04961851 30.99272314 -13.2343198 28.57737864 -15.25 25.625 C-21.6544622 17.01099834 -30.955157 12.17328347 -41.5 10.5 C-56.161241 9.38347603 -67.02456013 12.91574875 -78.3984375 22.01953125 C-86.46030935 29.2540931 -90.90330786 39.9947317 -91.75 50.64453125 C-92.25071293 64.83661323 -88.2842851 76.07252185 -78.65625 86.49609375 C-70.09748891 94.6514706 -58.96880161 98.41807689 -47.26953125 98.53125 C-35.75891874 97.99147919 -25.92000514 94.40566 -17.9375 85.875 C-13.76346645 80.86420017 -13.76346645 80.86420017 -9.5 71.5 C-23.69 71.5 -37.88 71.5 -52.5 71.5 C-52.5 62.92 -52.5 54.34 -52.5 45.5 C-28.41 45.5 -4.32 45.5 20.5 45.5 C20.5 67.45083041 19.03562867 84.22234007 5.5 101.5 C4.95472656 102.21027344 4.40945313 102.92054688 3.84765625 103.65234375 C-6.33192577 116.13131371 -21.7582583 123.27659016 -37.5 125.5 C-57.50120556 127.34298208 -77.83371429 123.68019957 -93.890625 110.921875 C-107.50610008 99.32839645 -117.29341823 83.40796113 -119.5 65.5 C-121.14846035 42.99337868 -117.09639909 22.58886759 -101.97045898 5.05981445 C-91.21541927 -6.67872982 -76.95470528 -13.41334596 -61.5 -16.5 C-60.78714844 -16.644375 -60.07429688 -16.78875 -59.33984375 -16.9375 C-38.78390565 -20.10604537 -15.29737753 -14.09246351 0 0 Z " fill="#5E80C0" transform="translate(552.5,288.5)"/>
<path d="M0 0 C69.98336414 0 69.98336414 0 90 17 C90.79019531 17.66644531 91.58039063 18.33289063 92.39453125 19.01953125 C104.93660989 30.53602254 111.48035823 47.28026914 112.23828125 64.14453125 C112.736336 84.85827252 107.98838971 103.46204146 93.4855957 118.84912109 C68.00697306 144.14183151 34.55250585 139 0 139 C0 93.13 0 47.26 0 0 Z M28 26 C28 55.04 28 84.08 28 114 C45.87600306 114 59.77369031 112.58473923 73.25 100.375 C81.73756361 91.37199731 85.5318961 79.50731162 85.1875 67.28125 C84.20670162 55.34820301 79.96445776 44.75727709 71.29296875 36.34375 C58.57080628 25.84461802 43.91863129 26 28 26 Z " fill="#5E80C0" transform="translate(271,273)"/>
<path d="M0 0 C9.24 0 18.48 0 28 0 C36.00287407 21.98276 43.84616961 44.01842282 51.59191895 66.09310913 C55.8597808 78.25587363 60.13511096 90.41544679 64.48046875 102.55078125 C64.83034851 103.52799133 65.18022827 104.50520142 65.54071045 105.51202393 C67.17546188 110.07467973 68.81386643 114.63599256 70.45654297 119.19580078 C71.03485062 120.80630796 71.61313952 122.41682188 72.19140625 124.02734375 C72.44883102 124.73836746 72.7062558 125.44939117 72.97148132 126.18196106 C73.21107071 126.85015366 73.4506601 127.51834625 73.69750977 128.20678711 C73.90223404 128.77449326 74.10695831 129.3421994 74.31788635 129.92710876 C75.30364829 132.92276394 76.13361839 135.96766436 77 139 C67.43 139 57.86 139 48 139 C47.14535156 136.55722656 46.29070312 134.11445313 45.41015625 131.59765625 C44.58345406 129.24104914 43.75576519 126.88479081 42.92797852 124.52856445 C42.35174849 122.88667462 41.77655023 121.24442231 41.20239258 119.60180664 C40.37850473 117.24530256 39.55095505 114.89011293 38.72265625 112.53515625 C38.46533218 111.79660904 38.20800812 111.05806183 37.94288635 110.2971344 C36.93375 106.8846229 36.93375 106.8846229 35 104 C34.60731934 104.70495605 34.21463867 105.40991211 33.81005859 106.13623047 C32.00003733 109.3834182 30.18753423 112.62921435 28.375 115.875 C27.44880859 117.53789062 27.44880859 117.53789062 26.50390625 119.234375 C24.6810139 122.49639288 22.84544639 125.75069259 21 129 C20.42926758 130.00708008 19.85853516 131.01416016 19.27050781 132.05175781 C18.74038086 132.96538086 18.21025391 133.87900391 17.6640625 134.8203125 C17.19693848 135.63000488 16.72981445 136.43969727 16.24853516 137.27392578 C15.63051025 138.12833252 15.63051025 138.12833252 15 139 C14.34 139 13.68 139 13 139 C12.60731934 138.29504395 12.21463867 137.59008789 11.81005859 136.86376953 C10.00003733 133.6165818 8.18753423 130.37078565 6.375 127.125 C5.75753906 126.01640625 5.14007812 124.9078125 4.50390625 123.765625 C0.78215904 117.10565632 -3.02600418 110.51278406 -7 104 C-7.43570313 105.1859375 -7.87140625 106.371875 -8.3203125 107.59375 C-12.17529221 118.07716222 -16.06753486 128.54539754 -20 139 C-29.57 139 -39.14 139 -49 139 C-35.16427572 98.62690293 -20.91120358 58.39811984 -6.51269531 18.22265625 C-4.33665329 12.15027321 -2.16850988 6.07507638 0 0 Z M14 41 C11.06362089 48.14498881 8.41174228 55.35926114 5.890625 62.66015625 C5.51895203 63.7312413 5.14727905 64.80232635 4.76434326 65.90586853 C3.98677715 68.14835862 3.21036323 70.39124852 2.43505859 72.63452148 C1.24226608 76.08487165 0.04522504 79.53372694 -1.15234375 82.98242188 C-1.90910351 85.16658029 -2.66562275 87.35082206 -3.421875 89.53515625 C-3.96083405 91.08808128 -3.96083405 91.08808128 -4.51068115 92.67237854 C-5.00184418 94.09537514 -5.00184418 94.09537514 -5.50292969 95.54711914 C-5.79286804 96.38521622 -6.0828064 97.22331329 -6.38153076 98.08680725 C-7.05126549 99.82347397 -7.05126549 99.82347397 -7 101 C6.86 101 20.72 101 35 101 C33.02818354 93.77000631 30.9886962 86.76833518 28.49609375 79.73046875 C28.17214127 78.80583328 27.84818878 77.88119781 27.51441956 76.92854309 C26.49233936 74.01359742 25.46509343 71.10050609 24.4375 68.1875 C23.40751834 65.25623636 22.37859645 62.32460249 21.34986877 59.39289856 C20.71310472 57.57947356 20.07540817 55.76637565 19.43663025 53.95365906 C17.9203415 49.64750626 16.42654301 45.3369908 15 41 C14.67 41 14.34 41 14 41 Z " fill="#5E80C0" transform="translate(751,273)"/>
<path d="M0 0 C9.24 0 18.48 0 28 0 C29.90458984 5.44113281 29.90458984 5.44113281 31.84765625 10.9921875 C39.82929051 33.78273273 47.81103462 56.57309158 55.9375 79.3125 C56.38358612 80.56184326 56.38358612 80.56184326 56.83868408 81.83642578 C60.12993782 91.05040868 63.45188448 100.25249115 66.8125 109.44140625 C67.72784499 111.95088013 68.6428718 114.46046988 69.55789185 116.97006226 C70.41436644 119.3117505 71.2780912 121.65067187 72.14233398 123.98950195 C72.65639809 125.3965336 73.1701688 126.8036725 73.68359375 128.2109375 C74.13275146 129.43087402 74.58190918 130.65081055 75.04467773 131.90771484 C76 135 76 135 76 139 C66.76 139 57.52 139 48 139 C43.6875 127 43.6875 127 42.34643555 123.265625 C40.27067679 117.49480075 38.17185218 111.73537662 36 106 C32.36652229 110.20146963 29.81307112 114.70534613 27.1875 119.5625 C26.3096135 121.16592332 25.43070247 122.76878613 24.55078125 124.37109375 C24.12104004 125.15468262 23.69129883 125.93827148 23.24853516 126.74560547 C20.58842561 131.54878332 17.79747281 136.27579095 15 141 C11.56703723 137.8825424 9.44583932 134.62285983 7.1796875 130.58984375 C6.83495392 129.9811293 6.49022034 129.37241486 6.13504028 128.74525452 C5.0421682 126.81275192 3.95831817 124.87537155 2.875 122.9375 C1.78267331 120.99716385 0.68851918 119.05787213 -0.40646362 117.11903381 C-1.39666418 115.36358837 -2.38228951 113.60556448 -3.36767578 111.84741211 C-4.50886394 109.85673345 -5.72719426 107.90920861 -7 106 C-7 105.01 -7 104.02 -7 103 C6.86 103 20.72 103 35 103 C32.97452683 97.04469657 30.94844127 91.08960799 28.92089844 85.13500977 C28.23403306 83.11722248 27.54749909 81.09932236 26.86132812 79.08129883 C22.64901851 66.69378306 18.38974347 54.325845 14 42 C12.22606901 47.01974395 10.45570722 52.04073757 8.6875 57.0625 C8.40965668 57.85156738 8.13181335 58.64063477 7.84555054 59.45361328 C1.23828777 78.23192856 -5.24789154 97.05199392 -11.72583008 115.87524414 C-12.12689972 117.03919205 -12.52796936 118.20313995 -12.94119263 119.40235901 C-13.69808536 121.59896683 -14.4539797 123.79591902 -15.20870972 125.99327087 C-15.54742096 126.97582352 -15.8861322 127.95837616 -16.23510742 128.97070312 C-16.67592903 130.25225281 -16.67592903 130.25225281 -17.12565613 131.55969238 C-18.02243824 134.06262548 -19.01256918 136.53142296 -20 139 C-29.57 139 -39.14 139 -49 139 C-45.62459061 127.74863537 -45.62459061 127.74863537 -44.06152344 123.29882812 C-43.70919144 122.29240768 -43.35685944 121.28598724 -42.99385071 120.24906921 C-42.61947372 119.18718887 -42.24509674 118.12530853 -41.859375 117.03125 C-41.46030441 115.89383865 -41.06123383 114.75642731 -40.65007019 113.58454895 C-39.57504941 110.52269152 -38.49792572 107.46158564 -37.41953659 104.40091324 C-36.74571049 102.48782146 -36.07268822 100.57444878 -35.39993286 98.66098022 C-23.80972283 65.69684709 -12.08752318 32.78533685 0 0 Z " fill="#E19F5D" transform="translate(1018,273)"/>
<path d="M0 0 C33 0 66 0 100 0 C100 8.58 100 17.16 100 26 C96.41874673 24.56749869 94.21681905 23.63523051 91.25 21.49609375 C90.55777344 21.00173828 89.86554688 20.50738281 89.15234375 19.99804688 C88.44207031 19.48306641 87.73179687 18.96808594 87 18.4375 C79.72002249 13.20890135 72.37246914 8.1040171 65 3 C64.67 47.88 64.34 92.76 64 139 C54.76 139 45.52 139 36 139 C36 101.71 36 64.42 36 26 C24.12 26 12.24 26 0 26 C0 17.42 0 8.84 0 0 Z " fill="#5E80C0" transform="translate(624,273)"/>
<path d="M0 0 C8.91 0 17.82 0 27 0 C27 37.29 27 74.58 27 113 C43.5 113 60 113 77 113 C77 121.58 77 130.16 77 139 C51.59 139 26.18 139 0 139 C0 93.13 0 47.26 0 0 Z " fill="#5E80C0" transform="translate(841,273)"/>
<path d="M0 0 C9.24 0 18.48 0 28 0 C28 45.87 28 91.74 28 139 C18.76 139 9.52 139 0 139 C0 93.13 0 47.26 0 0 Z " fill="#5E80C0" transform="translate(394,273)"/>
<path d="M0 0 C8.91 0 17.82 0 27 0 C27 45.87 27 91.74 27 139 C18.09 139 9.18 139 0 139 C0 93.13 0 47.26 0 0 Z " fill="#5E80C0" transform="translate(584,273)"/>
<path d="M0 0 C8.91 0 17.82 0 27 0 C27 27.72 27 55.44 27 84 C18.09 84 9.18 84 0 84 C0 56.28 0 28.56 0 0 Z " fill="#E19F5D" transform="translate(932,328)"/>
<path d="M0 0 C4.03825667 30.60233912 4.03825667 30.60233912 -1.14337158 38.81140137 C-7.44798828 46.09967204 -17.19639356 50.5726024 -26 54 C-26.33 54 -26.66 54 -27 54 C-31.03825667 23.39766088 -31.03825667 23.39766088 -25.85662842 15.18859863 C-20.74867638 9.2836977 -7.91007414 0 0 0 Z " fill="#5E80C0" transform="translate(959,266)"/>
<path d="M0 0 C14.19 0 28.38 0 43 0 C38.40818175 9.1836365 33.78145139 18.07181638 28.5625 26.875 C27.92634766 27.95652344 27.29019531 29.03804688 26.63476562 30.15234375 C25.09389903 32.77065842 23.54897945 35.38647967 22 38 C18.56703723 34.8825424 16.44583932 31.62285983 14.1796875 27.58984375 C13.66258713 26.67677208 13.66258713 26.67677208 13.13504028 25.74525452 C12.0421682 23.81275192 10.95831817 21.87537155 9.875 19.9375 C8.78267331 17.99716385 7.68851918 16.05787213 6.59353638 14.11903381 C5.60333582 12.36358837 4.61771049 10.60556448 3.63232422 8.84741211 C2.49113606 6.85673345 1.27280574 4.90920861 0 3 C0 2.01 0 1.02 0 0 Z " fill="#4766AD" transform="translate(1011,376)"/>
<path d="M0 0 C4.49593754 2.99452666 7.42589085 7.33626631 9.1171875 12.41015625 C9.81228322 19.46366852 9.62106974 25.68021718 5.1171875 31.41015625 C-0.68780631 36.85828569 -5.60285102 38.81346022 -13.51171875 38.68359375 C-19.21119171 38.02632339 -23.40627249 35.2382949 -27.2578125 31.09765625 C-30.96007257 26.34625436 -32.15611511 21.82807276 -31.6953125 15.84765625 C-30.67361144 9.07458182 -27.99978548 4.90086478 -22.703125 0.66796875 C-15.56501197 -4.26437545 -7.48064168 -3.61089797 0 0 Z M-19.8828125 6.41015625 C-24.13336658 10.99628039 -25.23677184 13.97619818 -25.16796875 20.08984375 C-24.62759674 24.48684337 -22.10407732 27.14527483 -19.1328125 30.22265625 C-15.04040474 32.38253813 -11.1727025 32.99922216 -6.7265625 31.85546875 C-1.98112849 29.85459545 0.56465452 27.30959302 2.5625 22.5625 C3.75810291 17.92322393 2.77059722 14.10133435 1.0546875 9.66015625 C-1.68297496 6.48093532 -4.93006503 4.76820193 -8.8828125 3.41015625 C-13.44679031 3.41015625 -15.85014337 4.32180974 -19.8828125 6.41015625 Z " fill="#5E80C0" transform="translate(781.8828125,462.58984375)"/>
<path d="M0 0 C7 0 7 0 8.90869141 1.63305664 C9.38483887 2.38449951 9.86098633 3.13594238 10.3515625 3.91015625 C11.16367187 5.14862305 11.16367187 5.14862305 11.9921875 6.41210938 C12.53101563 7.28673828 13.06984375 8.16136719 13.625 9.0625 C14.72094158 10.76198488 15.81728958 12.46120776 16.9140625 14.16015625 C17.6248999 15.29916382 17.6248999 15.29916382 18.35009766 16.46118164 C20.4621749 19.71118035 22.74712182 22.84597055 25 26 C25.33 17.42 25.66 8.84 26 0 C27.98 0 29.96 0 32 0 C32 12.87 32 25.74 32 39 C26 39 26 39 24.05078125 37.375 C23.47714844 36.59125 22.90351562 35.8075 22.3125 35 C21.31669922 33.65808594 21.31669922 33.65808594 20.30078125 32.2890625 C19.53045414 31.19509461 18.76387865 30.09848032 18 29 C17.52739746 28.32549805 17.05479492 27.65099609 16.56787109 26.95605469 C13.33647611 22.33090721 10.16675373 17.67096176 7 13 C6.67 21.58 6.34 30.16 6 39 C4.02 39 2.04 39 0 39 C0 26.13 0 13.26 0 0 Z " fill="#5E80C0" transform="translate(816,461)"/>
<path d="M0 0 C4.24142634 3.88484625 7.64138552 8.14618369 8.37109375 13.953125 C8.52017141 21.3543924 8.04427323 26.38755313 3 32 C-1.48720156 36.37214511 -5.67774791 37.81272161 -11.875 38.3125 C-17.14065797 38.13161862 -21.81057035 37.00536256 -25.765625 33.3828125 C-31.25677286 27.17195109 -32.5244091 22.59518238 -32.375 14.265625 C-31.72760411 8.62788575 -29.42942494 5.16370658 -25.25 1.44140625 C-17.76456343 -4.25333321 -8.18353934 -4.83572779 0 0 Z M-22 7 C-24.80312082 10.14572447 -25.90309837 13.32168859 -26.5 17.5 C-25.79011124 22.46922133 -24.24943817 25.96618155 -20.4921875 29.36328125 C-16.38626858 32.141938 -12.91501645 32.43629534 -8.078125 31.60546875 C-3.67768027 30.32338429 -1.60924086 27.94537374 0.8125 24.1875 C2.76967929 18.93401875 2.61115674 15.50242699 0.5 10.3125 C-2.00438073 6.3412677 -5.58329186 4.38884768 -10 3 C-14.93312878 3 -17.97617066 4.19651235 -22 7 Z " fill="#5E80C0" transform="translate(535,463)"/>
<path d="M0 0 C1.98 0 3.96 0 6 0 C6.00410889 0.82201904 6.00821777 1.64403809 6.01245117 2.4909668 C6.04539243 6.22387042 6.11604104 9.95514334 6.1875 13.6875 C6.19620117 15.62786133 6.19620117 15.62786133 6.20507812 17.60742188 C6.23408203 18.85458984 6.26308594 20.10175781 6.29296875 21.38671875 C6.3086792 22.53358154 6.32438965 23.68044434 6.34057617 24.86206055 C7.19437342 28.92494688 8.77350991 30.46420131 12 33 C15.18444653 33.17797389 15.18444653 33.17797389 18 32 C20.38948197 28.41577704 20.30233168 26.62767404 20.4140625 22.36328125 C20.45273437 21.06455078 20.49140625 19.76582031 20.53125 18.42773438 C20.56270517 17.05599427 20.59395251 15.68424939 20.625 14.3125 C20.66319197 12.92901215 20.70224442 11.54554777 20.7421875 10.16210938 C20.83660517 6.7748755 20.92218118 3.38764931 21 0 C23.31 0 25.62 0 28 0 C28.07455949 4.02009457 28.12879358 8.03991733 28.16479492 12.06054688 C28.17981428 13.42617816 28.20023608 14.79176176 28.22631836 16.15722656 C28.26300137 18.12803905 28.27818551 20.09921408 28.29296875 22.0703125 C28.3086792 23.25383301 28.32438965 24.43735352 28.34057617 25.65673828 C27.82639046 30.70423587 26.18966638 33.92639864 22.4375 37.3125 C18.29731585 40.17878134 14.96394542 40.50009898 10 40 C4.76219525 38.18691374 2.65932176 35.7992557 0 31 C-0.45410156 27.47314453 -0.45410156 27.47314453 -0.390625 23.6328125 C-0.38496521 22.95322479 -0.37930542 22.27363708 -0.37347412 21.57345581 C-0.35125351 19.42322451 -0.30109198 17.27471926 -0.25 15.125 C-0.22991614 13.6588784 -0.21166868 12.19273042 -0.1953125 10.7265625 C-0.15143811 7.15048992 -0.08251443 3.57541369 0 0 Z " fill="#5E80C0" transform="translate(614,461)"/>
<path d="M0 0 C2.27521255 1.42862183 4.03860599 2.58057987 5.6875 4.6875 C5.6875 5.3475 5.6875 6.0075 5.6875 6.6875 C2.22596154 9.6875 2.22596154 9.6875 -0.3125 9.6875 C-0.89 9.0275 -1.4675 8.3675 -2.0625 7.6875 C-4.20447412 5.38967567 -4.20447412 5.38967567 -7.4375 5.375 C-10.25189173 5.51221926 -10.25189173 5.51221926 -12.3125 6.6875 C-12.73030879 9.06055578 -12.73030879 9.06055578 -12.3125 11.6875 C-10.01216592 13.52776727 -7.51522496 14.59227092 -4.859375 15.83984375 C-3.97765625 16.26394531 -3.0959375 16.68804687 -2.1875 17.125 C-1.33929687 17.51558594 -0.49109375 17.90617187 0.3828125 18.30859375 C2.94073707 19.83901303 4.17445757 21.13213945 5.6875 23.6875 C6.28970318 27.76909931 6.60830832 30.17598446 4.4453125 33.7265625 C1.49844635 37.28919172 -0.540202 39.41291048 -5.36328125 39.890625 C-11.75878565 40.02317431 -15.84906258 38.95645552 -20.6875 34.5 C-21.22375 33.901875 -21.76 33.30375 -22.3125 32.6875 C-21.9825 31.6975 -21.6525 30.7075 -21.3125 29.6875 C-18.75 28.5 -18.75 28.5 -16.3125 27.6875 C-15.466875 28.533125 -14.62125 29.37875 -13.75 30.25 C-10.88788732 32.68177116 -10.49699759 32.6964273 -6.4375 32.5 C-5.40625 32.231875 -4.375 31.96375 -3.3125 31.6875 C-2.6525 30.0375 -1.9925 28.3875 -1.3125 26.6875 C-3.86555926 23.63801255 -6.64057107 22.59147282 -10.3125 21.1875 C-17.22974138 18.54267241 -17.22974138 18.54267241 -19.3125 15.6875 C-20.53277639 11.56327473 -20.74260696 7.85131882 -19.25 3.8125 C-13.87622806 -2.08131439 -7.12023655 -2.8212258 0 0 Z " fill="#5E80C0" transform="translate(893.3125,461.3125)"/>
<path d="M0 0 C2.26068049 1.41949705 3.96112058 2.67339068 5.6875 4.6875 C4.875 6.625 4.875 6.625 3.6875 8.6875 C2.6975 9.0175 1.7075 9.3475 0.6875 9.6875 C-0.055 9.0275 -0.7975 8.3675 -1.5625 7.6875 C-4.26197462 5.2758804 -4.26197462 5.2758804 -8.125 5.9375 C-9.7028125 6.30875 -9.7028125 6.30875 -11.3125 6.6875 C-11.6425 8.3375 -11.9725 9.9875 -12.3125 11.6875 C-11.1575 12.265 -10.0025 12.8425 -8.8125 13.4375 C-8.08804687 13.80230469 -7.36359375 14.16710937 -6.6171875 14.54296875 C-5.10979663 15.29155439 -3.59429558 16.02408012 -2.0703125 16.73828125 C-1.36648438 17.07214844 -0.66265625 17.40601563 0.0625 17.75 C0.70960938 18.05035156 1.35671875 18.35070312 2.0234375 18.66015625 C3.6875 19.6875 3.6875 19.6875 5.6875 22.6875 C6.38252786 27.45571439 6.38187161 31.45306158 4 35.6875 C-0.10606194 39.2386887 -3.7159377 40.15953213 -9.18359375 40.00390625 C-12.99433101 39.4375398 -16.23334026 37.9931866 -19.3125 35.6875 C-20.8125 32.9375 -20.8125 32.9375 -21.3125 30.6875 C-20.3225 29.6975 -19.3325 28.7075 -18.3125 27.6875 C-16.08139149 28.72337181 -14.30612603 29.69302411 -12.4375 31.3125 C-9.55333618 33.17872365 -7.68300917 33.11777777 -4.3125 32.6875 C-2.26798981 31.64375978 -2.26798981 31.64375978 -1.3125 29.6875 C-1.2179638 27.18539659 -1.2179638 27.18539659 -2.3125 24.6875 C-5.15147958 22.90723138 -5.15147958 22.90723138 -8.625 21.625 C-13.03352241 19.84283137 -16.26744003 18.40843247 -19.3125 14.6875 C-20.29058964 11.40391336 -20.49386963 9.38000224 -19.625 6.0625 C-15.31613308 -1.73449728 -7.96978373 -3.15783884 0 0 Z " fill="#5E80C0" transform="translate(473.3125,461.3125)"/>
<path d="M0 0 C9.24 0 18.48 0 28 0 C28 1.98 28 3.96 28 6 C24.37 6 20.74 6 17 6 C17 16.89 17 27.78 17 39 C15.02 39 13.04 39 11 39 C11 28.11 11 17.22 11 6 C7.37 6 3.74 6 0 6 C0 4.02 0 2.04 0 0 Z " fill="#5E80C0" transform="translate(666,461)"/>
<path d="M0 0 C1.98 0 3.96 0 6 0 C6 10.89 6 21.78 6 33 C11.61 33 17.22 33 23 33 C23 34.98 23 36.96 23 39 C15.41 39 7.82 39 0 39 C0 26.13 0 13.26 0 0 Z " fill="#5E80C0" transform="translate(568,461)"/>
<path d="M0 0 C2.31 0 4.62 0 7 0 C7 12.87 7 25.74 7 39 C4.69 39 2.38 39 0 39 C0 26.13 0 13.26 0 0 Z " fill="#5E80C0" transform="translate(719,461)"/>
</svg>
